<?xml version="1.0" encoding="UTF-8" standalone="no"?>
<!-- Generator: Adobe Illustrator 19.0.0, SVG Export Plug-In . SVG Version: 6.00 Build 0)  -->

<svg
   xmlns:dc="http://purl.org/dc/elements/1.1/"
   xmlns:cc="http://creativecommons.org/ns#"
   xmlns:rdf="http://www.w3.org/1999/02/22-rdf-syntax-ns#"
   xmlns:svg="http://www.w3.org/2000/svg"
   xmlns="http://www.w3.org/2000/svg"
   xmlns:sodipodi="http://sodipodi.sourceforge.net/DTD/sodipodi-0.dtd"
   xmlns:inkscape="http://www.inkscape.org/namespaces/inkscape"
   version="1.1"
   id="Capa_1"
   x="0px"
   y="0px"
   viewBox="0 0 788.61016 532.73144"
   xml:space="preserve"
   sodipodi:docname="moon.svg"
   width="788.61017"
   height="532.73145"
   inkscape:version="0.92.5 (2060ec1f9f, 2020-04-08)"><metadata
   id="metadata41"><rdf:RDF><cc:Work
       rdf:about=""><dc:format>image/svg+xml</dc:format><dc:type
         rdf:resource="http://purl.org/dc/dcmitype/StillImage" /><dc:title></dc:title></cc:Work></rdf:RDF></metadata><defs
   id="defs39" /><sodipodi:namedview
   pagecolor="#ffffff"
   bordercolor="#666666"
   borderopacity="1"
   objecttolerance="10"
   gridtolerance="10"
   guidetolerance="10"
   inkscape:pageopacity="0"
   inkscape:pageshadow="2"
   inkscape:window-width="1920"
   inkscape:window-height="999"
   id="namedview37"
   showgrid="false"
   fit-margin-top="0"
   fit-margin-left="0"
   fit-margin-right="0"
   fit-margin-bottom="0"
   inkscape:zoom="0.4609375"
   inkscape:cx="311.87968"
   inkscape:cy="276.7315"
   inkscape:window-x="0"
   inkscape:window-y="0"
   inkscape:window-maximized="1"
   inkscape:current-layer="Capa_1" />
<path
   style="fill:#efda45"
   d="m 473.56522,393.51396 c -45.591,71.117 -125.26,118.288 -215.959,118.484 -140.513,0.305 -255.8879969,-113.354 -257.58699686,-253.857 C -1.5787769,125.93796 96.642223,16.340961 224.04622,0.02696125 c 2.723,-0.349 4.497,2.76599995 2.842,4.95599995 -30.719,40.6609998 -48.931,91.2859998 -48.931,146.1769988 0,134.063 108.676,242.738 242.738,242.738 17.004,0 33.592,-1.744 49.607,-5.075 2.689,-0.559 4.745,2.379 3.263,4.691 z"
   id="path2"
   inkscape:connector-curvature="0" />
<path
   style="fill:#edc148"
   d="m 470.30822,388.81896 c 2.684,-0.558 4.74,2.373 3.261,4.682 -45.686,71.272 -125.591,118.499 -216.528,118.499 -141.965,0 -257.03699686,-115.083 -257.03699686,-257.037 0,-56.808 18.42399986,-109.306 49.63499986,-151.86 -7.086,23.245 -10.961,47.888 -11.116,73.419 -0.867,143.032 114.008997,258.635 257.043997,258.629 51.831,-0.002 100.076,-15.342 140.436,-41.74 11.684,-0.719 23.135,-2.268 34.305,-4.592 z"
   id="path4"
   inkscape:connector-curvature="0" />
<g
   id="g6"
   transform="translate(-18.967777,-3.8755031e-5)">
</g>
<g
   id="g8"
   transform="translate(-18.967777,-3.8755031e-5)">
</g>
<g
   id="g10"
   transform="translate(-18.967777,-3.8755031e-5)">
</g>
<g
   id="g12"
   transform="translate(-18.967777,-3.8755031e-5)">
</g>
<g
   id="g14"
   transform="translate(-18.967777,-3.8755031e-5)">
</g>
<g
   id="g16"
   transform="translate(-18.967777,-3.8755031e-5)">
</g>
<g
   id="g18"
   transform="translate(-18.967777,-3.8755031e-5)">
</g>
<g
   id="g20"
   transform="translate(-18.967777,-3.8755031e-5)">
</g>
<g
   id="g22"
   transform="translate(-18.967777,-3.8755031e-5)">
</g>
<g
   id="g24"
   transform="translate(-18.967777,-3.8755031e-5)">
</g>
<g
   id="g26"
   transform="translate(-18.967777,-3.8755031e-5)">
</g>
<g
   id="g28"
   transform="translate(-18.967777,-3.8755031e-5)">
</g>
<g
   id="g30"
   transform="translate(-18.967777,-3.8755031e-5)">
</g>
<g
   id="g32"
   transform="translate(-18.967777,-3.8755031e-5)">
</g>
<g
   id="g34"
   transform="translate(-18.967777,-3.8755031e-5)">
</g>
<path
   inkscape:connector-curvature="0"
   style="fill:#edebed;stroke-width:0.62676042"
   d="m 572.72511,412.63956 c -0.0915,0 -0.17893,0.0132 -0.26905,0.0132 -2.76049,-39.11469 -37.48825,-70.06629 -80.03715,-70.06629 -24.43592,0 -46.28056,10.2354 -61.01005,26.32895 -4.50572,-0.85619 -9.16639,-1.30943 -13.94244,-1.30943 -31.98674,0 -58.86416,20.19389 -67.00948,47.66682 -26.29265,7.52143 -45.41895,30.37416 -45.41895,57.41264 0,33.16202 28.76335,60.046 64.24509,60.046 h 203.44203 c 35.48173,0 64.24508,-26.88338 64.24508,-60.046 0,-33.16205 -28.76335,-60.0454 -64.24508,-60.0454 z"
   id="path2-3" /><path
   inkscape:connector-curvature="0"
   style="fill:#edebed;stroke-width:0.62676042"
   d="m 724.36509,180.11883 c -0.0915,0 -0.17893,0.0132 -0.26905,0.0132 -2.76049,-39.11469 -37.48825,-70.06629 -80.03715,-70.06629 -24.43592,0 -46.28056,10.2354 -61.01005,26.32895 -4.50572,-0.85619 -9.16639,-1.30943 -13.94244,-1.30943 -31.98674,0 -58.86416,20.19389 -67.00948,47.66682 -26.29265,7.52143 -45.41895,30.37416 -45.41895,57.41264 0,33.16202 28.76335,60.046 64.24509,60.046 h 203.44203 c 35.48173,0 64.24508,-26.88338 64.24508,-60.046 0,-33.16205 -28.76335,-60.0454 -64.24508,-60.0454 z"
   id="path2-3-6" /><path
   inkscape:connector-curvature="0"
   style="fill:#ffdc64;stroke-width:0.13677537"
   d="m 634.07447,70.7451 -21.7841,-2.190522 -8.65326,-21.78544 c -0.60582,-1.525435 -2.60074,-1.525435 -3.20656,0 l -8.65313,21.785582 -21.7841,2.19038 c -1.52531,0.153378 -2.14177,2.210312 -0.99095,3.306356 l 16.43616,15.654805 -4.81003,23.139399 c -0.3368,1.62014 1.27706,2.89136 2.59417,2.04341 l 18.81123,-12.11032 18.81123,12.11032 c 1.31711,0.84795 2.93109,-0.42327 2.59429,-2.04341 l -4.81016,-23.139399 16.43617,-15.654805 c 1.15081,-1.096044 0.53435,-3.152978 -0.99096,-3.306356 z"
   id="path2-7" /><path
   inkscape:connector-curvature="0"
   style="fill:#ffdc64;stroke-width:0.13677537"
   d="m 648.17617,351.69426 -21.7841,-2.19052 -8.65326,-21.78545 c -0.60582,-1.52543 -2.60074,-1.52543 -3.20656,0 l -8.65313,21.78559 -21.7841,2.19038 c -1.52531,0.15338 -2.14177,2.21031 -0.99095,3.30636 l 16.43616,15.6548 -4.81003,23.1394 c -0.3368,1.62014 1.27706,2.89136 2.59417,2.04341 l 18.81123,-12.11032 18.81123,12.11032 c 1.31711,0.84795 2.93109,-0.42327 2.59429,-2.04341 l -4.81016,-23.1394 16.43617,-15.6548 c 1.15081,-1.09605 0.53435,-3.15298 -0.99096,-3.30636 z"
   id="path2-7-5"
   inkscape:transform-center-x="156.20339"
   inkscape:transform-center-y="-171.38983" /><path
   inkscape:connector-curvature="0"
   style="fill:#ffdc64;stroke-width:0.13677537"
   d="m 392.17617,199.82985 -21.7841,-2.19052 -8.65326,-21.78544 c -0.60582,-1.52544 -2.60074,-1.52544 -3.20656,0 l -8.65313,21.78558 -21.7841,2.19038 c -1.52531,0.15338 -2.14177,2.21031 -0.99095,3.30636 l 16.43616,15.6548 -4.81003,23.1394 c -0.3368,1.62014 1.27706,2.89136 2.59417,2.04341 l 18.81123,-12.11032 18.81123,12.11032 c 1.31711,0.84795 2.93109,-0.42327 2.59429,-2.04341 l -4.81016,-23.1394 16.43617,-15.6548 c 1.15081,-1.09605 0.53435,-3.15298 -0.99096,-3.30636 z"
   id="path2-7-3"
   inkscape:transform-center-x="-47.728813"
   inkscape:transform-center-y="-23.864406" /></svg>