<?xml version="1.0" encoding="UTF-8" standalone="no"?>
<!-- Generator: Adobe Illustrator 23.0.3, SVG Export Plug-In . SVG Version: 6.00 Build 0)  -->

<svg
   xmlns:dc="http://purl.org/dc/elements/1.1/"
   xmlns:cc="http://creativecommons.org/ns#"
   xmlns:rdf="http://www.w3.org/1999/02/22-rdf-syntax-ns#"
   xmlns:svg="http://www.w3.org/2000/svg"
   xmlns="http://www.w3.org/2000/svg"
   xmlns:sodipodi="http://sodipodi.sourceforge.net/DTD/sodipodi-0.dtd"
   xmlns:inkscape="http://www.inkscape.org/namespaces/inkscape"
   version="1.1"
   id="Icons"
   x="0px"
   y="0px"
   viewBox="0 0 28 24"
   xml:space="preserve"
   sodipodi:docname="terminal.svg"
   width="28"
   height="24"
   inkscape:version="0.92.5 (2060ec1f9f, 2020-04-08)"><metadata
   id="metadata11"><rdf:RDF><cc:Work
       rdf:about=""><dc:format>image/svg+xml</dc:format><dc:type
         rdf:resource="http://purl.org/dc/dcmitype/StillImage" /><dc:title></dc:title></cc:Work></rdf:RDF></metadata><defs
   id="defs9" /><sodipodi:namedview
   pagecolor="#ffffff"
   bordercolor="#666666"
   borderopacity="1"
   objecttolerance="10"
   gridtolerance="10"
   guidetolerance="10"
   inkscape:pageopacity="0"
   inkscape:pageshadow="2"
   inkscape:window-width="1920"
   inkscape:window-height="999"
   id="namedview7"
   showgrid="false"
   fit-margin-top="0"
   fit-margin-left="0"
   fit-margin-right="0"
   fit-margin-bottom="0"
   inkscape:zoom="7.375"
   inkscape:cx="14"
   inkscape:cy="12"
   inkscape:window-x="0"
   inkscape:window-y="0"
   inkscape:window-maximized="1"
   inkscape:current-layer="Icons" />
<style
   type="text/css"
   id="style2">
	.st0{fill:none;stroke:#000000;stroke-width:2;stroke-linecap:round;stroke-linejoin:round;stroke-miterlimit:10;}
</style>
<path
   d="M 25,0 H 3 C 1.3,0 0,1.3 0,3 v 18 c 0,1.7 1.3,3 3,3 h 22 c 1.7,0 3,-1.3 3,-3 V 3 C 28,1.3 26.7,0 25,0 Z M 7.1,3.6 C 7.2,3.5 7.2,3.4 7.3,3.3 7.4,3.2 7.5,3.1 7.6,3.1 8,2.9 8.4,3 8.7,3.3 8.8,3.4 8.9,3.5 8.9,3.6 9,3.7 9,3.9 9,4 9,4.3 8.9,4.5 8.7,4.7 8.5,4.9 8.3,5 8,5 7.7,5 7.5,4.9 7.3,4.7 7.1,4.5 7,4.3 7,4 7,3.9 7,3.7 7.1,3.6 Z M 4,4 C 4,3.7 4.1,3.5 4.3,3.3 4.3,3.3 4.4,3.2 4.4,3.2 4.5,3.2 4.5,3.1 4.6,3.1 4.7,3 4.7,3 4.8,3 c 0.1,0 0.3,0 0.4,0 0.1,0 0.1,0 0.2,0.1 0.1,0 0.1,0.1 0.2,0.1 0,0 0.1,0.1 0.1,0.1 C 5.8,3.4 5.9,3.5 5.9,3.6 6,3.7 6,3.9 6,4 6,4.1 6,4.3 5.9,4.4 5.9,4.5 5.8,4.6 5.7,4.7 5.5,4.9 5.3,5 5,5 4.7,5 4.5,4.9 4.3,4.7 4.1,4.5 4,4.3 4,4 Z m 5.7,10.7 -3,3 C 6.5,17.9 6.3,18 6,18 5.7,18 5.5,17.9 5.3,17.7 4.9,17.3 4.9,16.7 5.3,16.3 L 7.6,14 5.3,11.7 c -0.4,-0.4 -0.4,-1 0,-1.4 0.4,-0.4 1,-0.4 1.4,0 l 3,3 c 0.4,0.4 0.4,1 0,1.4 z m 0.6,-10 C 10.2,4.6 10.1,4.5 10.1,4.4 10,4.3 10,4.1 10,4 c 0,-0.1 0,-0.3 0.1,-0.4 0.1,-0.1 0.1,-0.2 0.2,-0.3 0.4,-0.4 1,-0.4 1.4,0 0.1,0.1 0.2,0.2 0.2,0.3 C 12,3.7 12,3.9 12,4 12,4.1 12,4.3 11.9,4.4 11.8,4.5 11.8,4.6 11.7,4.7 11.5,4.9 11.3,5 11,5 10.9,5 10.7,5 10.6,4.9 10.5,4.9 10.4,4.8 10.3,4.7 Z M 16,18 h -4 c -0.6,0 -1,-0.4 -1,-1 0,-0.6 0.4,-1 1,-1 h 4 c 0.6,0 1,0.4 1,1 0,0.6 -0.4,1 -1,1 z"
   id="path4"
   inkscape:connector-curvature="0" />
</svg>